<?xml version="1.0" encoding="UTF-8"?>
<svg xmlns="http://www.w3.org/2000/svg" xmlns:xlink="http://www.w3.org/1999/xlink" viewBox="0 0 128 128" width="128px" height="128px">
<g id="surface144149863">
<path style=" stroke:none;fill-rule:nonzero;fill:rgb(100%,100%,100%);fill-opacity:1;" d="M 120 26.375 C 115.8125 28.1875 111.59375 29.53125 106.9375 29.96875 C 111.59375 27.28125 115.34375 22.75 117.1875 17.8125 C 112.53125 20.5 107.875 22.3125 102.75 23.21875 C 98.0625 18.71875 92 16 85.46875 16 C 72.875 16 62.59375 25.9375 62.59375 38.125 C 62.59375 39.90625 62.59375 41.71875 63.0625 43.09375 C 39 43.09375 22.5 29.53125 11.3125 16 C 8.96875 19.15625 8.03125 23.21875 8.03125 27.28125 C 8.03125 34.9375 12.25 41.71875 18.3125 45.78125 C 14.5625 45.34375 10.84375 44.4375 8.03125 43.09375 C 8.03125 43.09375 8.03125 43.09375 8.03125 43.53125 C 8.03125 54.375 15.96875 63.375 26.25 65.1875 C 24.375 65.625 22.5 66.09375 20.15625 66.09375 C 18.78125 66.09375 17.375 66.09375 15.96875 65.65625 C 18.78125 74.6875 31.8125 85.0625 42.0625 85.0625 C 34.125 90.90625 26.75 96 12 96 C 10.125 96 11.625 96 8 96 C 18.25 102.3125 30.40625 104 43 104 C 85.46875 104 108.34375 70.15625 108.34375 40.8125 C 108.34375 39.90625 108.34375 39.03125 108.34375 38.125 C 113 34.9375 116.75 30.90625 120 26.375 "/>
</g>
</svg>
