<?xml version="1.0" encoding="UTF-8"?>
<svg xmlns="http://www.w3.org/2000/svg" xmlns:xlink="http://www.w3.org/1999/xlink" viewBox="0 0 128 128" width="128px" height="128px">
<g id="surface144220198">
<path style=" stroke:none;fill-rule:nonzero;fill:rgb(100%,100%,100%);fill-opacity:1;" d="M 64 16 C 47.6875 16 33.25 17.6875 24.46875 19 C 17.28125 20.0625 11.5625 25.6875 10.25 32.90625 C 9.125 39.21875 8 48.4375 8 60 C 8 71.5625 9.125 80.78125 10.25 87.09375 C 11.5625 94.3125 17.28125 99.90625 24.46875 101 C 33.28125 102.3125 47.78125 104 64 104 C 80.21875 104 94.6875 102.3125 103.5 101 L 103.53125 101 C 110.71875 99.9375 116.4375 94.3125 117.75 87.09375 C 118.875 80.75 120 71.53125 120 60 C 120 48.4375 118.875 39.21875 117.71875 32.90625 C 116.4375 25.6875 110.71875 20.0625 103.53125 19 C 94.75 17.6875 80.3125 16 64 16 Z M 64 24 C 79.75 24 93.84375 25.625 102.34375 26.90625 C 106.09375 27.46875 109.125 30.40625 109.84375 34.3125 C 110.90625 40.21875 112 48.96875 112 60 C 112 71.03125 110.90625 79.78125 109.875 85.65625 C 109.15625 89.59375 106.125 92.53125 102.34375 93.09375 C 93.78125 94.34375 79.65625 96 64 96 C 48.34375 96 34.1875 94.34375 25.65625 93.09375 C 21.90625 92.53125 18.84375 89.59375 18.125 85.65625 C 17.09375 79.75 16 71.03125 16 60 C 16 48.9375 17.09375 40.21875 18.125 34.3125 C 18.84375 30.40625 21.875 27.46875 25.625 26.9375 L 25.65625 26.9375 C 34.15625 25.65625 48.25 24 64 24 Z M 48 40 L 48 80 L 88 60 Z M 48 40 "/>
</g>
</svg>
